<svg xmlns="http://www.w3.org/2000/svg" viewBox="0 0 200.73 183.41"><defs><style>.cls-1{fill:#864000;}</style></defs><g id="Capa_2" data-name="Capa 2"><g id="Capa_2-2" data-name="Capa 2"><path class="cls-1" d="M84.94,145.26c0-6,3-10.83,5.8-15.77C106,102.74,128.28,87.73,160,89.26a45.82,45.82,0,0,1,23.56,7.37,29.28,29.28,0,0,1,7.49,7.15c3.61,5,2.68,9.59-2.72,12.61a62.51,62.51,0,0,1-13.74,5.77,284.57,284.57,0,0,0-66.16,27.57,66.75,66.75,0,0,1-10.88,5C89.31,157.65,84.94,154.26,84.94,145.26Z"/><path class="cls-1" d="M200.73,128.49a50.31,50.31,0,0,1-5.85,15.59c-14.91,25.83-37,40.44-68.58,39.27a46.67,46.67,0,0,1-23.52-6.86,28.81,28.81,0,0,1-7.53-6.8c-3.64-4.81-2.75-9.18,2.6-12.13a63.56,63.56,0,0,1,13.63-5.66,289.81,289.81,0,0,0,65.62-27.08,68,68,0,0,1,10.78-4.88C196.05,117,199.92,119.81,200.73,128.49Z"/><path class="cls-1" d="M47.46,66.25c15.37.64,30.87,8.3,42.14,23.59A35.08,35.08,0,0,1,95.12,103c1.11,5-1.5,7.4-6.73,7.36a19.7,19.7,0,0,1-5.43-.64A292,292,0,0,0,13.84,97.35c-4.12-.22-8.9-.69-10.49-5.32-1.66-4.84,1.53-8.61,4.61-12C15.63,71.76,30.11,66.26,47.46,66.25Z"/><path class="cls-1" d="M35.05,138.94c14.74,4.66,31.88,3.05,47.51-6.88A32.91,32.91,0,0,0,92,122.13c2.69-4.17,1-7.18-4-8.92a20.39,20.39,0,0,0-5.34-1.28A306.39,306.39,0,0,1,13.37,99.46c-4-1.22-8.64-2.42-11.65,1.21C-1.43,104.46.36,109,2.2,113,6.75,123.12,18.65,133,35.05,138.94Z"/><path class="cls-1" d="M150.74,34.23c-.65,20-6.77,37.72-22.36,50.93a45,45,0,0,1-16.13,8.25c-6.06,1.78-9.32-2.2-7.41-8.28a85.5,85.5,0,0,1,6-14.2,280.69,280.69,0,0,0,20.08-50.42,61.45,61.45,0,0,1,4.38-11.1c2.57-4.89,6.3-4.88,9.57-.09,4.59,6.74,5.28,14.58,5.87,22.41C150.8,32.56,150.74,33.4,150.74,34.23Z"/><path class="cls-1" d="M127.57,0c5.09.09,7.4,2.77,6.14,7.8a44.27,44.27,0,0,1-3.77,9.73,300.49,300.49,0,0,0-23.11,57.25,46,46,0,0,1-4.3,10c-2.33,4.06-5.77,4.46-8.23.53-2.58-4.13-4.88-8.89-5.61-13.63-4-25.68,2.82-47.89,23.23-64.82,4.29-3.56,8-4.65,10-5.65A16.23,16.23,0,0,1,127.57,0Z"/></g></g></svg>